<svg width="18" height="14" viewBox="0 0 18 14" fill="none" xmlns="http://www.w3.org/2000/svg">
<path fill-rule="evenodd" clip-rule="evenodd" d="M6.39186 11.1926C6.78077 10.8037 7.41719 10.8037 7.80607 11.1926C8.195 11.5815 8.195 12.2179 7.8061 12.6068L7.09972 13.3132C6.32123 14.0917 5.05385 14.0972 4.27558 13.3189L1.08352 10.1269C0.306205 9.34957 0.304984 8.08708 1.08291 7.30915L6.04395 2.34811C6.816 1.57606 8.08606 1.57308 8.86758 2.3546L11.3416 4.82865C11.7305 5.21756 11.7305 5.85393 11.3416 6.24284C10.9527 6.63175 10.3163 6.63177 9.92741 6.24286L8.51246 4.82791C8.1191 4.43455 7.48859 4.43905 7.09692 4.83072L3.56553 8.36211C3.16598 8.76166 3.1759 9.39084 3.57008 9.78502L4.97104 11.186C5.37128 11.5862 6.00134 11.5831 6.39186 11.1926ZM10.6345 1.29304L11.3408 0.586675C12.1193 -0.191811 13.3867 -0.197363 14.165 0.580908L17.357 3.773C18.1344 4.55032 18.1356 5.81282 17.3577 6.59075L12.3966 11.5518C11.6246 12.3238 10.3545 12.3268 9.57299 11.5453L7.09892 9.07122C6.71001 8.68231 6.71001 8.04591 7.09892 7.657C7.48783 7.2681 8.12422 7.2681 8.51313 7.657L9.92808 9.07196C10.3214 9.46532 10.952 9.46082 11.3436 9.06915L14.875 5.53776C15.2746 5.13821 15.2647 4.50903 14.8705 4.11485L13.4695 2.71388C13.0693 2.31365 12.4401 2.31582 12.0507 2.70523L12.0487 2.70726C11.6598 3.09617 11.0234 3.09617 10.6345 2.70726C10.2455 2.31835 10.2455 1.68195 10.6345 1.29304Z" fill="#C92232"/>
</svg>
